<?xml version="1.0" standalone="no"?>
<!DOCTYPE svg PUBLIC "-//W3C//DTD SVG 20010904//EN"
 "http://www.w3.org/TR/2001/REC-SVG-20010904/DTD/svg10.dtd">
<svg version="1.0" xmlns="http://www.w3.org/2000/svg"
 width="800.000000pt" height="800.000000pt" viewBox="0 0 800.000000 800.000000"
 preserveAspectRatio="xMidYMid meet">
<metadata>
Created by potrace 1.11, written by Peter Selinger 2001-2013
</metadata>
<g transform="translate(0.000000,800.000000) scale(0.100000,-0.100000)"
fill="#000000" stroke="none">
<path d="M3996 7000 c-3 -8 -14 -40 -26 -70 -18 -50 -20 -78 -20 -297 l0 -243
-28 0 c-28 0 -30 -4 -128 -265 l-99 -265 -287 0 -288 0 0 -130 0 -130 385 0
c426 0 409 3 381 -64 l-15 -36 -710 0 -711 0 0 -175 0 -175 -125 0 -125 0 0
-90 0 -90 -140 0 -140 0 0 -75 0 -75 250 0 250 0 0 -95 0 -95 -30 0 -30 0 0
-120 c0 -66 2 -120 3 -120 2 0 60 26 128 59 265 126 685 275 1009 359 l145 37
3 68 3 67 354 0 355 0 0 -67 0 -68 168 -44 c338 -88 711 -222 980 -351 l142
-69 0 125 0 124 -30 0 -30 0 0 95 0 95 245 0 245 0 0 75 0 74 -137 3 -138 3
-3 88 -3 87 -119 0 -120 0 0 175 0 175 -714 0 -714 0 -11 31 c-26 74 -56 69
374 69 l385 0 0 130 0 130 -284 0 -284 0 -36 93 c-19 50 -64 169 -99 262 -61
161 -66 170 -93 175 l-29 5 -5 260 c-5 238 -7 264 -27 310 -13 32 -23 45 -27
35z m-876 -1750 l0 -100 -300 0 -300 0 0 93 c0 52 3 97 7 100 3 4 138 7 300 7
l293 0 0 -100z m750 0 l0 -100 -335 0 -335 0 0 100 0 100 335 0 335 0 0 -100z
m938 -2 l3 -98 -341 0 -340 0 0 100 0 100 338 -2 337 -3 3 -97z m672 2 l0
-100 -300 0 -300 0 0 100 0 100 300 0 300 0 0 -100z"/>
<path d="M1310 6570 c0 -27 68 -1258 150 -2735 83 -1477 150 -2704 150 -2725
l0 -40 2390 0 2390 0 0 43 c0 23 68 1250 150 2727 82 1477 150 2706 150 2733
l0 47 -110 0 c-70 0 -110 -4 -110 -10 0 -6 -83 -1176 -185 -2600 -102 -1424
-185 -2594 -185 -2600 0 -7 -176 -10 -553 -10 l-553 0 -38 217 c-20 120 -40
230 -43 246 l-5 27 124 0 124 0 12 203 c30 513 135 947 341 1412 91 204 214
424 325 578 l53 75 -81 53 c-108 72 -409 222 -576 288 -201 80 -529 186 -739
240 l-186 48 -3 61 -3 62 -299 0 -300 0 0 -60 c0 -40 -4 -62 -12 -65 -7 -2
-100 -27 -207 -55 -352 -92 -715 -223 -986 -355 -124 -60 -337 -182 -362 -208
-9 -9 2 -33 53 -107 385 -559 627 -1303 651 -1997 l6 -173 152 0 151 0 -32
-228 c-18 -125 -33 -235 -33 -244 -1 -17 -36 -18 -591 -18 -324 0 -590 2 -590
5 0 3 -83 1171 -185 2595 -102 1424 -185 2596 -185 2605 0 13 -18 15 -110 15
l-110 0 0 -50z m3270 -4685 c0 -3 18 -107 40 -230 22 -123 40 -231 40 -240 0
-13 -70 -15 -625 -15 -589 0 -625 1 -625 18 0 9 14 119 31 245 l32 227 553 0
c305 0 554 -2 554 -5z"/>
</g>
</svg>
